<?xml version="1.0" standalone="no"?>
<!DOCTYPE svg PUBLIC "-//W3C//DTD SVG 20010904//EN"
 "http://www.w3.org/TR/2001/REC-SVG-20010904/DTD/svg10.dtd">
<svg version="1.0" xmlns="http://www.w3.org/2000/svg"
 width="1024.000000pt" height="1024.000000pt" viewBox="0 0 1024.000000 1024.000000"
 preserveAspectRatio="xMidYMid meet">

<g transform="translate(0.000000,1024.000000) scale(0.100000,-0.100000)"
fill="#000000" stroke="none">
<path d="M3332 8305 c-94 -29 -154 -107 -156 -200 0 -61 28 -114 81 -146 l35
-22 597 9 c639 9 1497 10 2391 3 546 -4 556 -4 590 17 46 26 83 94 82 149 -1
72 -43 137 -122 184 l-35 21 -1710 -1 c-1397 0 -1718 -3 -1753 -14z m3445
-107 c24 -23 30 -57 13 -88 -14 -27 -71 -43 -104 -30 -33 12 -76 57 -76 80 0
17 45 64 70 72 23 7 71 -9 97 -34z"/>
<path d="M4444 7831 c-110 -6 -111 -6 -138 -38 -14 -17 -61 -54 -104 -81 -104
-67 -167 -125 -242 -224 -108 -144 -194 -350 -220 -533 -35 -248 23 -547 147
-758 93 -157 157 -229 467 -529 405 -390 426 -416 411 -495 -6 -33 -53 -84
-379 -408 -403 -401 -456 -464 -547 -650 -105 -218 -142 -478 -104 -740 27
-187 78 -321 184 -480 64 -96 192 -224 281 -280 41 -27 93 -65 116 -85 l40
-37 376 -7 c357 -7 975 -1 1046 10 22 3 36 13 44 29 6 14 45 48 86 76 170 118
303 272 392 454 68 140 96 243 109 405 17 201 -14 418 -83 587 -75 184 -164
299 -448 579 -122 121 -283 276 -356 344 -74 68 -140 133 -149 146 -24 37 -28
96 -8 135 10 19 185 201 390 404 334 331 380 381 440 474 69 106 130 234 158
331 57 195 61 439 12 633 -55 215 -229 471 -405 597 -102 73 -130 100 -130
126 l0 24 -637 -2 c-351 -1 -688 -4 -749 -7z m991 -125 c187 -5 289 -40 448
-154 102 -73 202 -193 264 -317 67 -132 109 -344 100 -499 -7 -119 -30 -244
-53 -287 -9 -17 -22 -49 -29 -70 -23 -64 -103 -189 -181 -279 -40 -47 -225
-235 -412 -418 -237 -231 -347 -345 -361 -375 -28 -57 -28 -155 -1 -215 23
-50 72 -100 468 -476 162 -153 311 -301 333 -329 100 -126 196 -325 231 -479
31 -134 31 -376 0 -500 -38 -153 -115 -283 -265 -448 -100 -110 -239 -191
-397 -231 -75 -19 -104 -20 -547 -16 -523 4 -511 2 -661 78 -63 32 -108 65
-182 136 -55 52 -115 116 -135 143 -57 78 -113 201 -142 312 -25 93 -27 120
-28 283 0 253 32 389 134 564 73 124 128 186 500 557 405 404 414 415 414 525
0 83 -35 139 -172 271 -412 397 -632 621 -678 689 -145 214 -201 411 -190 664
9 211 52 343 165 515 110 168 335 329 498 358 45 8 581 7 879 -2z"/>
<path d="M4010 6757 c0 -106 57 -319 112 -417 79 -143 155 -225 585 -638 127
-122 252 -250 277 -285 25 -34 53 -73 64 -86 l18 -24 33 59 c26 45 122 148
400 424 391 390 446 455 527 623 30 64 46 114 52 162 5 39 9 71 8 72 -1 1 -40
-25 -86 -59 -172 -123 -277 -159 -475 -166 -230 -7 -445 33 -660 122 -49 21
-128 54 -175 73 -114 47 -439 131 -647 167 -32 5 -33 4 -33 -27z"/>
<path d="M5028 5048 c-15 -46 -30 -112 -34 -148 -5 -57 -4 -67 14 -83 21 -19
70 -26 91 -13 34 21 33 121 -3 241 -29 95 -38 96 -68 3z"/>
<path d="M5010 4670 c-26 -26 -25 -55 2 -74 32 -23 61 -20 88 9 20 21 21 27 9
42 -36 48 -67 55 -99 23z"/>
<path d="M5011 4464 c-27 -34 -26 -55 2 -82 43 -40 107 -18 107 37 0 27 -42
71 -69 71 -11 0 -29 -12 -40 -26z"/>
<path d="M5007 4197 c-21 -13 -104 -93 -185 -179 -341 -360 -495 -482 -727
-573 -80 -31 -80 -32 -77 -65 15 -138 110 -317 234 -436 109 -106 209 -164
354 -206 76 -22 93 -23 469 -23 l390 0 103 37 c132 47 215 101 322 208 100
100 165 208 211 349 16 51 28 95 27 96 -2 1 -27 10 -57 19 -86 28 -230 103
-311 163 -41 31 -198 179 -347 330 -253 254 -310 303 -355 303 -7 0 -30 -10
-51 -23z m932 -873 c21 -18 31 -35 31 -54 0 -31 -48 -80 -80 -80 -22 0 -80 64
-80 89 0 10 9 30 21 45 27 34 68 34 108 0z"/>
<path d="M6642 7803 l-62 -4 2 -1135 3 -1136 38 -35 c33 -29 44 -34 70 -29 18
3 44 20 60 36 l27 31 -2 1130 c-3 1220 0 1152 -53 1147 -11 -1 -48 -3 -83 -5z"/>
<path d="M3340 6676 c0 -694 4 -1134 10 -1150 5 -14 27 -34 52 -47 41 -21 43
-21 76 -3 66 35 62 -37 62 1167 0 602 -3 1109 -6 1126 l-6 31 -94 0 -94 0 0
-1124z"/>
<path d="M3394 5331 c-108 -26 -155 -145 -101 -251 30 -60 76 -90 139 -90 90
0 144 42 169 133 11 43 -2 106 -32 148 -32 46 -116 74 -175 60z"/>
<path d="M6624 5329 c-42 -12 -100 -78 -114 -129 -18 -69 20 -157 85 -196 47
-29 142 -26 188 6 44 30 69 81 69 143 0 86 -52 153 -137 176 -46 12 -49 12
-91 0z"/>
<path d="M3393 4840 c-17 -10 -37 -28 -42 -39 -12 -22 -14 -2238 -2 -2279 6
-22 11 -24 99 -25 l92 -2 0 1152 0 1152 -37 30 c-44 36 -66 38 -110 11z"/>
<path d="M6639 4835 c-20 -13 -40 -32 -45 -42 -4 -10 -9 -530 -11 -1156 l-2
-1138 97 3 97 3 2 1130 c2 889 0 1135 -10 1155 -11 22 -70 70 -86 70 -4 0 -23
-11 -42 -25z"/>
<path d="M3275 2346 c-43 -18 -93 -79 -101 -122 -15 -79 38 -165 126 -203 l49
-21 1718 2 1718 3 54 30 c63 35 96 75 109 131 16 72 -25 151 -93 179 -45 19
-3536 19 -3580 1z"/>
</g>
</svg>
